<?xml version="1.0" standalone="no"?>
<!DOCTYPE svg PUBLIC "-//W3C//DTD SVG 20010904//EN"
 "http://www.w3.org/TR/2001/REC-SVG-20010904/DTD/svg10.dtd">
<svg version="1.0" xmlns="http://www.w3.org/2000/svg"
 width="1921.000000pt" height="7561.000000pt" viewBox="0 0 1921.000000 7561.000000"
 preserveAspectRatio="xMidYMid meet">

<g transform="translate(0.000000,7561.000000) scale(0.100000,-0.100000)"
fill="#000000" stroke="none">
<path d="M6057 72556 c-142 -74 -197 -141 -197 -242 0 -69 43 -152 93 -179 32
-18 37 -25 37 -57 0 -57 -27 -104 -71 -123 -47 -22 -59 -35 -213 -230 -170
-215 -201 -285 -199 -450 2 -112 24 -208 104 -449 80 -242 114 -310 182 -372
l49 -44 -58 0 c-103 0 -452 -19 -664 -35 -358 -28 -443 -47 -414 -93 6 -9 29
-22 50 -28 36 -11 37 -12 14 -17 -52 -11 -235 -28 -522 -47 -351 -24 -351 -24
-512 -142 -61 -45 -116 -81 -123 -81 -7 0 -10 -4 -7 -9 9 -15 -33 -8 -46 7
-18 21 -32 19 -87 -14 -42 -26 -159 -68 -233 -85 -14 -3 -44 -19 -68 -37 -40
-29 -42 -33 -27 -49 9 -10 43 -28 76 -40 35 -13 56 -27 51 -32 -4 -4 -49 -18
-98 -30 -49 -12 -91 -23 -94 -25 -2 -2 -6 -23 -7 -46 -1 -23 -5 -58 -8 -78 -6
-32 -4 -37 15 -42 30 -8 21 -29 -23 -50 -20 -9 -37 -18 -37 -20 0 -1 13 -38
30 -81 23 -61 41 -92 80 -131 59 -60 60 -68 24 -186 l-26 -86 35 -104 c19 -57
40 -135 47 -174 11 -61 18 -75 57 -114 31 -32 48 -60 60 -100 8 -31 33 -96 55
-146 43 -100 87 -152 182 -218 33 -22 86 -64 117 -93 65 -59 108 -76 271 -103
96 -17 97 -17 147 -69 27 -28 69 -62 94 -74 24 -13 64 -36 87 -53 l43 -30 216
-6 c120 -4 234 -12 256 -18 22 -7 108 -35 192 -62 83 -27 169 -49 191 -49 79
0 221 32 398 91 117 38 250 73 375 98 107 21 234 53 283 71 l90 33 171 171
c152 151 174 178 193 229 12 32 22 64 22 71 0 8 6 29 14 47 8 19 22 75 31 124
15 78 23 95 55 130 46 49 48 55 61 173 5 54 21 145 35 203 l25 106 -39 94
c-58 137 -59 147 -20 198 18 24 43 57 55 73 24 34 69 206 56 218 -4 4 -25 13
-45 20 -51 16 -56 28 -22 55 26 21 29 21 67 7 80 -32 121 -185 99 -377 -7 -64
-17 -112 -26 -120 -8 -9 -17 -48 -21 -103 -8 -104 0 -124 58 -149 20 -9 37
-23 37 -30 0 -27 60 -80 102 -91 24 -6 143 -13 265 -17 251 -6 269 -3 317 59
15 21 30 54 33 75 4 32 0 43 -27 74 -43 49 -114 70 -243 71 l-97 1 -20 32
c-11 18 -31 35 -45 39 -23 6 -25 10 -25 67 0 33 11 117 25 186 13 69 34 176
45 236 12 61 25 111 30 113 23 8 91 65 107 89 35 53 11 192 -54 302 -66 113
-184 195 -376 262 -63 21 -67 24 -42 31 15 4 37 15 49 26 11 10 33 23 49 30
15 6 27 16 27 22 0 7 6 8 19 0 28 -15 77 -12 91 4 6 8 33 25 58 37 26 13 59
34 73 47 14 13 50 32 79 42 76 26 102 70 65 110 -14 15 -5 25 98 107 443 355
1051 680 1400 749 48 9 87 20 87 24 0 44 -134 37 -305 -15 -338 -103 -869
-415 -1321 -776 -104 -82 -115 -89 -136 -78 -12 7 -63 14 -113 17 -85 4 -92 3
-130 -23 -49 -34 -88 -31 -239 19 -76 26 -136 39 -207 45 -98 8 -101 9 -140
47 -29 29 -39 46 -39 70 0 24 -12 46 -46 86 -67 78 -110 155 -129 228 -22 86
-48 129 -137 225 -41 44 -80 96 -88 115 -7 19 -17 39 -22 45 -18 20 -7 54 27
84 44 38 79 40 125 6 19 -14 47 -25 66 -25 34 0 79 30 89 59 3 10 17 23 30 29
14 7 25 20 25 31 0 11 5 23 11 27 6 3 8 17 5 29 -6 25 6 38 36 40 22 2 58 34
58 51 0 7 -13 23 -30 36 -28 20 -30 26 -30 85 l0 63 34 0 c44 0 174 29 209 47
23 12 28 20 25 46 -2 27 -11 36 -48 55 -24 12 -59 22 -77 22 -25 0 -33 4 -33
18 0 23 -22 43 -80 72 -25 13 -65 39 -90 60 -87 72 -113 80 -257 78 l-128 -2
-78 -40z m141 -354 c45 -55 57 -73 54 -85 -2 -6 0 -8 4 -4 4 4 7 27 5 51 -3
49 -5 47 81 66 36 8 63 6 120 -7 40 -9 76 -21 80 -27 4 -6 8 -38 8 -70 0 -60
17 -96 46 -96 7 0 15 -4 19 -9 8 -15 -24 -41 -50 -41 -15 0 -26 -7 -30 -20 -3
-11 -14 -20 -24 -20 -20 0 -71 -36 -71 -51 0 -5 18 -9 41 -9 24 0 38 -4 34
-10 -12 -19 -73 -12 -85 10 -12 22 -30 27 -30 8 0 -7 16 -22 36 -33 l35 -21
-21 -27 c-14 -18 -31 -27 -49 -27 -31 0 -130 68 -178 124 -39 43 -44 27 -8
-26 l25 -37 -34 -21 c-19 -11 -44 -35 -55 -53 l-20 -31 -9 24 c-14 37 -52 67
-98 79 -23 6 -53 21 -68 32 l-27 21 40 43 c43 47 66 111 57 157 -4 20 -1 30
13 38 16 8 20 5 25 -21 6 -33 56 -89 78 -89 8 0 7 4 -5 11 -26 15 -57 83 -57
124 0 25 8 44 25 61 30 30 59 26 93 -14z m327 -291 c-6 -4 -26 -11 -45 -14
l-35 -6 30 14 c34 16 64 20 50 6z m-505 -106 c34 -17 59 -39 76 -68 15 -23 36
-53 49 -67 24 -27 39 -60 27 -60 -15 0 -67 44 -117 99 -44 48 -110 90 -121 78
-3 -2 9 -10 25 -16 16 -7 54 -42 86 -77 31 -36 78 -75 103 -88 45 -23 157
-126 137 -126 -6 0 -29 11 -53 25 -59 33 -44 15 28 -36 71 -50 92 -81 115
-168 9 -36 26 -83 37 -105 26 -51 99 -155 127 -180 11 -11 21 -26 21 -34 0
-29 -89 -101 -182 -147 -114 -57 -165 -66 -192 -36 -19 21 -19 21 16 21 47 0
131 26 160 50 21 17 16 17 -47 -5 -39 -13 -88 -27 -110 -30 l-40 -6 -130 140
c-200 217 -254 311 -258 449 -2 72 -17 59 -17 -14 0 -124 63 -244 215 -405 49
-52 120 -127 157 -167 46 -49 75 -72 91 -72 22 0 108 21 137 34 11 4 49 -21
117 -76 56 -46 112 -90 124 -99 30 -21 19 -37 -77 -124 -43 -38 -75 -64 -71
-58 5 7 -28 -15 -73 -48 -67 -50 -86 -72 -112 -122 -33 -67 -18 -63 26 6 15
23 50 59 77 81 l50 38 -38 -52 c-86 -119 -100 -135 -117 -138 -18 -4 -222 109
-341 189 -81 54 -164 138 -193 195 -33 66 -160 464 -177 553 -19 105 -19 201
0 274 26 101 42 126 262 403 l72 92 41 -39 c23 -22 63 -50 90 -64z m3103 -122
c-7 -2 -21 -2 -30 0 -10 3 -4 5 12 5 17 0 24 -2 18 -5z m-193 -52 c-219 -73
-424 -171 -652 -312 -43 -26 -78 -45 -78 -41 0 4 -5 -1 -11 -11 -6 -9 -14 -15
-20 -12 -5 4 -9 1 -9 -4 0 -6 -7 -11 -15 -11 -8 0 -15 -4 -15 -10 0 -5 -7 -10
-15 -10 -8 0 -15 -4 -15 -8 0 -5 -44 -38 -98 -75 -109 -72 -234 -171 -416
-327 -85 -73 -121 -99 -129 -91 -7 7 -7 14 -1 20 24 23 549 421 630 477 258
180 616 363 849 435 153 47 149 31 -5 -20z m-2275 -784 c69 -63 76 -67 56 -34
l-23 37 25 0 c48 0 194 -30 287 -60 119 -38 209 -41 241 -9 20 20 29 21 107
16 91 -7 113 -16 87 -37 -33 -27 -8 -72 40 -72 14 0 22 -5 19 -10 -4 -6 -28
-8 -58 -5 l-51 6 40 -19 40 -20 -45 4 c-25 2 -54 7 -64 12 -14 5 -17 4 -12 -4
4 -7 -8 -5 -29 5 -31 15 -41 15 -83 4 -31 -9 -137 -15 -317 -18 l-270 -5 -117
89 -117 90 77 51 c42 28 79 51 82 52 3 0 41 -33 85 -73z m970 -67 c8 -24 -7
-46 -46 -66 -68 -35 -79 -3 -17 50 48 42 54 43 63 16z m-315 -157 c57 -21 55
-20 40 -38 -13 -16 -57 -20 -76 -7 -7 4 -14 16 -16 27 -4 17 -7 15 -17 -12 -7
-18 -22 -35 -34 -39 -12 -4 -33 -15 -47 -25 -14 -10 -45 -21 -70 -24 -36 -5
-52 -1 -80 16 -22 14 -30 24 -22 27 8 2 27 -5 42 -17 34 -25 48 -12 24 24 -14
21 -14 25 -2 25 8 0 23 -9 33 -20 22 -25 31 -19 14 9 -18 28 -3 39 30 19 27
-15 28 -15 24 3 -6 23 14 25 45 3 12 -8 22 -10 22 -5 0 6 -9 16 -20 23 -11 7
-20 16 -20 20 0 14 84 8 130 -9z m-165 -3 c-3 -5 -11 -10 -16 -10 -6 0 -7 5
-4 10 3 6 11 10 16 10 6 0 7 -4 4 -10z m262 4 c-3 -3 -12 -4 -19 -1 -8 3 -5 6
6 6 11 1 17 -2 13 -5z m-317 -14 c-19 -13 -30 -13 -30 0 0 6 10 10 23 10 18 0
19 -2 7 -10z m-221 -43 c100 -77 118 -87 245 -131 170 -60 259 -108 332 -181
123 -122 175 -328 96 -383 -46 -33 -166 -90 -224 -107 -69 -20 -177 -17 -189
5 -4 8 -21 45 -37 82 -17 37 -49 87 -72 112 -41 45 -54 54 -153 110 -27 15
-46 31 -42 34 3 4 30 9 58 13 50 6 49 6 -23 8 -85 1 -309 34 -380 55 -41 12
-106 41 -119 52 -9 8 67 103 160 201 55 58 103 117 110 137 l13 36 85 0 c85 0
85 0 140 -43z m154 21 c-4 -20 -11 -23 -46 -22 -23 0 -60 10 -82 22 l-40 21
86 1 c84 0 86 -1 82 -22z m-1049 -271 c31 -14 99 -56 153 -93 108 -76 145 -85
187 -45 23 22 25 22 55 7 40 -21 172 -51 287 -66 54 -8 100 -19 113 -30 23
-17 23 -17 -57 -58 -43 -23 -85 -49 -93 -58 -24 -29 18 -49 140 -69 l111 -18
0 -31 c0 -17 9 -44 20 -61 11 -16 20 -33 20 -36 0 -12 -72 -38 -205 -73 -77
-21 -152 -41 -166 -46 -14 -4 -33 -4 -42 1 -9 6 -56 15 -104 21 -48 6 -95 16
-103 23 -15 13 -259 69 -267 62 -2 -2 50 -16 114 -31 65 -16 123 -34 129 -42
7 -9 53 -21 113 -31 55 -8 109 -22 118 -29 17 -13 16 -15 -9 -38 -19 -17 -60
-32 -133 -49 -59 -14 -112 -30 -118 -36 -14 -14 38 -36 123 -50 36 -7 78 -14
94 -17 l29 -6 -24 -20 -24 -19 34 16 c20 10 30 20 24 26 -5 5 -56 18 -113 30
-58 11 -109 25 -113 29 -5 4 24 15 65 24 40 9 95 24 121 32 50 17 84 53 73 79
-3 8 -2 15 2 15 41 1 226 32 256 43 36 12 42 12 88 -12 l50 -26 -4 -55 c-4
-60 -43 -154 -83 -202 -33 -39 -33 -94 1 -173 62 -148 60 -135 37 -232 -12
-49 -27 -128 -33 -178 -6 -49 -13 -105 -16 -123 -3 -22 -25 -54 -67 -100 -33
-37 -70 -78 -82 -91 -18 -23 -17 -22 18 3 20 16 37 24 37 20 0 -5 -16 -67 -35
-137 -46 -166 -79 -232 -147 -288 -29 -24 -98 -86 -153 -139 l-100 -96 -145
-48 c-80 -26 -186 -54 -237 -61 -97 -15 -169 -34 -403 -108 -254 -80 -327 -80
-554 -7 -67 21 -139 44 -161 51 -23 6 -136 14 -260 18 l-221 6 -69 42 c-39 23
-92 62 -119 86 l-49 43 39 -3 c77 -8 10 15 -141 47 -200 42 -207 44 -273 102
-31 27 -92 73 -135 101 -52 34 -87 67 -107 97 -30 48 -113 250 -105 258 2 3
17 -3 32 -12 15 -10 -7 16 -50 56 l-78 73 -24 100 c-13 55 -36 133 -51 174
l-27 74 26 81 c37 113 36 144 -9 197 -48 58 -84 131 -84 171 0 27 7 37 35 55
34 22 37 23 165 11 114 -10 130 -14 130 -29 0 -28 52 -49 151 -61 49 -6 86
-15 82 -19 -4 -4 -47 -19 -96 -34 -48 -15 -89 -31 -92 -35 -2 -4 8 -12 23 -19
25 -10 25 -10 8 4 -22 17 -28 13 84 45 113 33 131 55 53 65 -118 15 -168 26
-182 39 -23 24 1 42 79 61 39 9 80 25 93 35 12 9 64 32 115 50 51 18 91 34 89
36 -6 6 -191 -58 -207 -72 -8 -7 -44 -20 -80 -29 -36 -8 -77 -20 -91 -26 -19
-7 -61 -5 -160 11 -129 21 -209 37 -209 44 0 2 7 17 16 35 9 18 13 42 10 56
-6 22 -2 25 36 35 80 21 168 52 174 61 10 17 -14 35 -86 63 -38 15 -70 31 -70
34 0 13 39 31 102 47 99 25 190 56 229 78 35 18 39 18 60 3 40 -28 65 -19 142
47 139 120 147 124 292 146 98 16 553 41 715 40 l135 -1 -79 -26 c-44 -15 -81
-32 -83 -38 -6 -20 142 -25 382 -13 268 12 435 25 385 28 l-35 2 40 15 c22 8
57 32 77 54 21 22 41 40 47 40 5 0 42 19 83 42 48 28 67 44 55 46 -22 4 -162
-70 -202 -108 -16 -15 -45 -35 -64 -45 -53 -26 -230 -39 -521 -35 -82 1 -84 1
-52 15 33 14 45 49 20 58 -7 2 8 8 33 12 55 8 78 20 64 34 -8 8 -157 39 -200
42 -5 0 -1 4 10 9 54 21 703 60 942 55 170 -3 185 -5 237 -28z m888 -282 c25
-17 40 -37 47 -63 13 -44 14 -178 2 -147 -5 11 -6 34 -4 51 3 17 1 34 -4 37
-5 3 -47 10 -93 17 -126 16 -150 21 -150 31 0 5 21 20 48 33 26 13 58 33 72
45 32 26 38 26 82 -4z m143 -130 c32 -50 86 -167 80 -173 -2 -2 -21 1 -42 7
-63 17 -78 38 -92 132 -6 46 -15 93 -18 104 l-6 20 23 -20 c13 -11 38 -43 55
-70z m431 -152 c-10 -31 -66 -370 -66 -397 0 -28 -9 -32 -97 -39 -59 -5 -63
-1 -63 71 0 26 -9 103 -20 172 -11 69 -20 128 -20 131 0 3 26 9 58 11 32 3 89
19 127 36 84 36 88 37 81 15z m-297 -66 c11 -28 28 -145 36 -249 l6 -78 -29 0
-30 0 -4 118 c-4 88 -10 131 -26 172 -12 30 -22 56 -22 58 0 1 14 2 30 2 23 0
33 -6 39 -23z m41 -405 l0 -65 -36 6 c-20 3 -38 8 -40 10 -3 2 -2 29 2 60 7
56 7 56 40 55 l34 -1 0 -65z m190 -19 l0 -58 -43 -17 c-23 -10 -59 -18 -80
-18 -41 0 -42 2 -31 84 7 46 7 46 48 47 33 1 88 11 104 18 1 0 2 -25 2 -56z
m-200 -80 c0 -8 -12 -13 -29 -13 -43 0 -59 9 -54 29 4 16 9 17 44 7 21 -5 39
-16 39 -23z m218 -15 c-7 -22 -71 -48 -120 -48 -60 0 -77 7 -71 29 4 16 10 17
42 9 28 -7 51 -6 87 6 62 19 67 19 62 4z m50 -42 l20 -34 -20 -19 c-20 -18
-53 -82 -45 -89 2 -2 19 20 38 49 l34 52 116 -1 c133 -2 178 -13 214 -55 48
-58 23 -123 -60 -155 -38 -14 -59 -15 -123 -8 -42 5 -133 7 -202 6 -114 -3
-129 -1 -170 20 -65 33 -84 75 -69 154 6 32 13 62 15 66 2 4 25 0 50 -9 58
-20 112 -6 146 36 27 33 29 32 56 -13z m-281 10 c-2 -6 -10 -37 -17 -68 -10
-45 -17 -58 -31 -58 -31 0 -52 43 -44 92 4 24 9 45 10 48 7 11 86 -2 82 -14z"/>
<path d="M6356 72189 c-33 -26 -27 -37 8 -14 17 11 40 16 66 13 36 -3 39 -2
24 9 -26 19 -68 16 -98 -8z"/>
<path d="M6159 72145 c17 -57 19 -60 20 -34 1 14 -6 34 -14 45 -14 18 -14 17
-6 -11z"/>
<path d="M6137 72133 c-9 -9 -9 -51 1 -56 4 -3 7 10 7 29 0 19 0 34 -1 34 0 0
-4 -3 -7 -7z"/>
<path d="M6350 72128 c14 -14 121 -56 111 -44 -10 11 -8 17 6 25 15 9 12 10
-18 11 -20 0 -52 3 -70 6 -19 4 -32 5 -29 2z"/>
<path d="M6496 72021 c-5 -7 -3 -18 3 -24 14 -14 20 -6 11 17 -5 15 -9 16 -14
7z"/>
<path d="M5990 71595 c71 -18 83 -18 41 0 -18 8 -47 15 -65 14 -25 -1 -20 -3
24 -14z"/>
<path d="M6259 71384 c14 -30 98 -120 105 -113 3 3 -22 34 -55 70 -33 35 -55
55 -50 43z"/>
<path d="M6044 71359 l-29 -32 29 19 c16 11 57 24 90 30 l61 12 -61 1 c-55 1
-63 -2 -90 -30z"/>
<path d="M6040 71177 c0 -3 18 -45 40 -91 37 -79 86 -136 113 -136 7 0 2 8
-10 18 -12 9 -43 53 -69 97 -53 90 -74 123 -74 112z"/>
<path d="M6465 70954 l-30 -26 33 22 c17 12 32 23 32 26 0 7 -4 5 -35 -22z"/>
<path d="M5885 70763 c-49 -11 -115 -35 -120 -43 -3 -5 10 -3 29 5 41 17 145
20 196 5 19 -5 71 -12 115 -15 68 -4 74 -3 40 6 -138 35 -228 50 -260 42z"/>
<path d="M6544 70563 c-36 -46 -36 -47 -5 -18 30 28 57 65 48 65 -3 0 -22 -21
-43 -47z"/>
<path d="M6885 70392 c-44 -51 -53 -71 -16 -37 31 29 56 64 49 69 -2 2 -16
-13 -33 -32z"/>
<path d="M4494 70018 c-49 -45 -74 -85 -74 -118 0 -15 12 -26 43 -39 57 -25
83 -59 109 -145 22 -74 33 -96 51 -96 5 0 3 8 -5 18 -8 9 -20 43 -26 75 -18
90 -39 125 -93 155 -34 19 -49 33 -49 48 0 26 42 91 78 121 15 13 24 23 19 23
-4 0 -28 -19 -53 -42z"/>
<path d="M5550 69945 c-174 -7 -278 -14 -266 -19 21 -10 673 10 751 23 72 12
-129 10 -485 -4z"/>
<path d="M4325 69809 c-44 -4 -186 -15 -315 -24 -129 -9 -237 -19 -240 -22
-16 -18 598 25 675 47 l30 8 -35 0 c-19 -1 -71 -4 -115 -9z"/>
<path d="M5445 69569 c-275 -34 -583 -94 -660 -128 -85 -37 -72 -40 31 -6 42
14 86 25 98 25 11 0 77 11 146 24 151 29 377 62 480 71 86 7 108 -1 91 -34
-29 -54 49 -92 214 -105 l70 -6 -105 24 c-58 13 -118 30 -133 37 -26 12 -28
16 -21 52 4 28 2 42 -7 48 -17 11 -109 10 -204 -2z"/>
<path d="M4133 69289 c-36 -10 -39 -19 -22 -51 17 -31 -14 -52 -118 -84 -47
-14 -83 -27 -81 -29 2 -2 38 4 81 15 126 32 164 60 138 102 -7 11 -9 23 -6 26
20 20 517 -2 765 -33 19 -2 26 -2 15 1 -11 3 -40 12 -65 20 -87 30 -631 55
-707 33z"/>
<path d="M6301 69086 c-1 -36 5 -44 72 -108 l72 -70 -33 -28 c-44 -37 -180
-88 -371 -140 l-153 -42 -132 6 c-72 3 -252 8 -401 10 -252 4 -258 4 -95 -5
96 -5 257 -16 356 -25 100 -9 203 -16 230 -15 68 0 452 119 554 171 45 23 73
60 64 83 -3 9 -27 32 -53 51 -67 50 -99 87 -104 121 -3 26 -4 25 -6 -9z"/>
<path d="M3651 69005 c-1 -23 -15 -45 -56 -85 -107 -106 -70 -133 274 -200
187 -36 209 -37 347 -6 60 14 192 37 293 52 101 16 179 30 173 32 -17 5 -269
-26 -417 -53 -196 -35 -199 -35 -298 -20 -239 36 -407 84 -407 117 0 8 18 31
39 52 45 44 65 84 58 118 -4 19 -5 18 -6 -7z"/>
<path d="M6371 68513 c-35 -21 -85 -58 -110 -82 -52 -49 -49 -48 74 39 133 93
143 105 36 43z"/>
<path d="M3650 68499 c41 -22 91 -50 110 -62 l35 -21 -20 23 c-18 21 -170 101
-191 101 -5 0 25 -19 66 -41z"/>
<path d="M3927 68310 c49 -84 94 -155 114 -176 24 -26 38 -29 224 -48 239 -25
280 -28 274 -22 -9 9 -150 33 -304 51 -71 9 -141 20 -155 26 -14 5 -40 33 -58
62 -18 29 -51 72 -73 97 -40 43 -41 43 -22 10z"/>
<path d="M6039 68208 c-30 -46 -63 -102 -74 -126 -11 -25 -30 -49 -46 -57 -15
-8 -108 -33 -206 -56 -199 -46 -352 -93 -273 -83 84 10 461 94 489 108 15 8
32 21 38 28 11 15 133 268 129 268 -2 0 -27 -37 -57 -82z"/>
<path d="M9285 71670 c3 -5 13 -10 21 -10 8 0 12 5 9 10 -3 6 -13 10 -21 10
-8 0 -12 -4 -9 -10z"/>
<path d="M15581 52243 c-42 -21 -84 -78 -112 -152 -44 -118 -13 -231 109 -402
75 -104 143 -244 145 -300 l2 -41 -77 -24 c-90 -29 -150 -71 -195 -137 -29
-43 -41 -76 -88 -232 l-12 -40 -84 -7 c-46 -5 -128 -19 -182 -33 -118 -30
-124 -30 -229 -5 -46 11 -107 20 -137 20 l-53 0 6 -30 c7 -39 59 -115 92 -137
22 -14 23 -17 10 -32 -25 -28 -36 -102 -26 -167 13 -80 12 -154 -2 -209 -11
-42 -11 -46 12 -71 31 -32 56 -43 144 -58 l69 -11 -69 -45 c-38 -24 -116 -90
-174 -145 -127 -123 -158 -144 -330 -228 -74 -36 -173 -89 -220 -116 -47 -28
-103 -56 -125 -62 -93 -24 -136 -42 -165 -69 -66 -62 -13 -98 136 -93 138 4
246 18 285 38 19 10 66 38 104 63 73 47 277 142 305 142 44 0 125 35 174 75
68 55 119 81 226 115 47 15 109 37 139 49 l54 22 -5 -38 c-3 -21 -13 -63 -22
-94 -15 -50 -20 -57 -47 -63 -41 -8 -99 -67 -99 -99 0 -53 45 -77 149 -80 115
-3 125 7 179 165 32 95 44 149 49 218 6 85 8 92 35 111 l28 20 0 -65 c0 -90
-19 -220 -33 -225 -26 -9 -67 -61 -67 -85 0 -43 42 -66 122 -66 67 0 72 2 105
35 l36 36 -7 83 c-5 65 -2 102 13 173 11 50 25 129 30 176 6 47 17 102 27 123
l16 39 14 -50 c25 -92 46 -269 41 -340 -3 -49 -14 -90 -36 -138 -38 -84 -39
-109 -5 -136 37 -29 105 -27 171 3 65 30 70 48 53 164 -10 69 -10 124 0 286
15 246 9 509 -19 801 -53 548 -107 718 -317 992 -92 121 -92 121 -50 138 20 8
44 15 55 15 60 0 98 51 88 116 -8 46 -27 67 -90 99 -59 29 -98 31 -146 8z
m146 -42 c52 -38 72 -84 52 -120 -11 -20 -25 -27 -63 -33 -142 -20 -145 -60
-16 -209 206 -237 260 -403 315 -964 36 -364 39 -456 24 -720 -15 -262 -15
-333 2 -414 10 -50 9 -55 -11 -75 -16 -15 -24 -17 -27 -8 -7 19 -31 14 -38 -8
-4 -11 -15 -20 -27 -20 -20 0 -21 15 -2 65 5 13 2 16 -11 14 -10 -2 -24 -20
-30 -39 -12 -34 -28 -40 -50 -19 -6 6 -5 21 4 42 46 114 61 167 61 222 0 64
-23 260 -40 335 -20 93 -20 100 10 154 33 58 70 158 70 189 0 31 -10 14 -34
-56 -34 -102 -120 -230 -227 -338 -93 -94 -102 -100 -243 -168 -80 -39 -207
-93 -283 -121 -178 -65 -228 -89 -282 -134 -58 -49 -68 -54 -149 -71 -129 -27
-294 -101 -369 -166 -57 -49 -125 -83 -173 -87 -192 -13 -266 -12 -284 1 -11
8 -16 19 -12 26 11 18 75 47 146 67 55 15 417 191 560 272 25 14 97 75 160
136 88 85 142 128 230 180 163 98 251 168 303 240 25 35 21 33 -88 -50 -132
-99 -153 -107 -254 -102 -102 6 -170 30 -151 53 8 9 9 21 4 32 -5 10 -9 47
-10 83 0 36 -4 106 -8 155 -9 98 2 152 29 141 34 -13 21 16 -27 62 -29 28 -62
65 -72 83 -19 32 -19 32 2 27 11 -3 72 -16 135 -29 l114 -23 107 27 c70 18
148 29 226 34 80 4 124 10 131 19 16 20 0 36 -28 29 -14 -3 -23 -2 -20 2 2 4
17 49 32 98 34 110 46 135 92 186 56 62 185 119 270 119 46 0 61 19 16 21 -16
1 -31 1 -35 0 -5 0 -8 18 -8 42 0 63 -57 190 -140 313 -105 156 -125 202 -125
294 1 187 125 296 242 211z m18 -2071 c-7 -47 -22 -133 -34 -192 -17 -83 -21
-124 -15 -178 6 -60 4 -73 -11 -90 -29 -32 -48 -26 -40 11 5 24 4 30 -6 27 -8
-3 -15 -17 -17 -31 -2 -19 -9 -27 -23 -27 -15 0 -19 7 -19 35 0 24 -5 35 -15
35 -11 0 -15 -11 -15 -36 0 -37 -14 -42 -34 -12 -16 25 7 65 42 73 26 5 30 11
30 38 0 18 5 52 11 77 6 25 11 83 11 130 l0 85 72 72 c40 40 73 71 74 70 1 -1
-4 -40 -11 -87z m-260 -187 c-11 -100 -23 -160 -51 -249 -22 -72 -32 -89 -58
-105 -29 -18 -76 -26 -76 -14 0 4 7 20 16 36 8 17 14 35 12 41 -6 17 -38 -22
-45 -53 -4 -24 -11 -29 -34 -29 -34 0 -38 23 -13 71 8 17 13 33 10 36 -10 10
-28 -10 -46 -49 -19 -42 -37 -36 -26 8 10 37 62 64 124 64 39 0 52 4 52 15 0
9 -9 15 -23 15 l-23 0 17 68 c10 37 18 83 18 103 1 35 4 38 69 67 37 17 71 31
75 31 5 1 6 -25 2 -56z"/>
<path d="M15624 51075 c-9 -22 1 -29 15 -11 8 10 9 16 1 21 -5 3 -13 -1 -16
-10z"/>
<path d="M15525 50964 c-24 -20 -34 -34 -24 -34 16 0 76 56 68 64 -2 2 -22
-11 -44 -30z"/>
<path d="M15069 50713 c-56 -42 -93 -93 -78 -107 3 -3 34 22 69 55 62 58 65
59 73 37 13 -35 -2 -94 -30 -123 -27 -27 -24 -47 5 -29 49 31 76 164 41 200
-15 14 -22 11 -80 -33z"/>
<path d="M14882 50498 c-8 -10 1 -12 44 -10 30 2 54 8 54 13 0 14 -86 11 -98
-3z"/>
<path d="M15000 50460 c0 -5 4 -10 9 -10 6 0 13 5 16 10 3 6 -1 10 -9 10 -9 0
-16 -4 -16 -10z"/>
<path d="M14908 50449 c-31 -17 -20 -28 23 -24 46 4 54 9 44 24 -8 14 -44 14
-67 0z"/>
<path d="M14943 50363 c-64 -15 -91 -40 -30 -28 72 15 107 26 107 35 0 12 3
12 -77 -7z"/>
<path d="M14852 50298 c9 -25 178 -38 178 -14 0 9 -18 15 -52 20 -86 10 -130
8 -126 -6z"/>
<path d="M3447 40713 c-23 -26 -77 -145 -71 -155 3 -5 -1 -17 -9 -26 -8 -9
-23 -44 -35 -76 -15 -46 -17 -66 -10 -88 6 -15 13 -28 18 -28 4 0 22 42 40 93
42 118 90 227 100 227 14 0 30 -61 30 -110 0 -57 -22 -135 -46 -161 -9 -10
-41 -30 -71 -43 -29 -14 -53 -30 -53 -35 0 -20 -19 -11 -33 15 l-13 25 -18
-40 c-11 -22 -36 -52 -57 -67 -59 -41 -118 -110 -145 -169 -30 -66 -98 -296
-114 -385 -15 -85 -7 -133 46 -267 73 -185 120 -401 117 -538 -2 -104 54 -396
109 -560 48 -145 145 -346 228 -474 34 -52 79 -129 100 -170 30 -61 46 -81 79
-99 l41 -23 -6 33 c-10 54 -76 186 -149 298 -105 160 -204 375 -286 620 -66
196 -72 222 -73 300 -1 103 13 128 107 192 80 54 197 173 267 271 30 42 60 77
67 77 21 0 15 -83 -11 -152 -52 -139 -143 -296 -242 -419 -57 -71 -62 -100 -7
-48 30 30 33 31 39 13 18 -53 45 -106 50 -101 3 3 -2 37 -11 76 l-17 70 44 53
c70 85 155 213 203 306 16 32 17 33 35 17 10 -9 29 -40 41 -68 19 -43 23 -68
23 -147 -1 -81 -7 -114 -41 -227 -35 -114 -39 -134 -26 -144 11 -10 17 -9 27
2 19 21 95 286 98 340 3 51 10 53 33 10 33 -64 29 -138 -19 -356 -22 -102 -41
-354 -27 -368 22 -22 34 13 43 125 10 134 16 173 54 341 20 93 32 127 43 127
29 0 101 -42 122 -72 l21 -29 -30 -67 c-55 -120 -63 -213 -36 -427 18 -144 27
-175 48 -175 32 0 35 23 20 140 -19 144 -15 325 10 395 10 28 40 98 68 157 50
106 50 106 32 132 -20 26 -34 33 -34 16 0 -5 -9 -35 -21 -66 l-21 -56 -37 35
c-41 41 -77 57 -126 57 -30 0 -33 3 -40 37 -10 54 -29 87 -75 125 -22 19 -40
41 -40 49 0 30 -48 116 -81 144 -32 28 -34 35 -35 91 0 51 -5 67 -25 91 -32
38 -86 292 -73 345 4 18 7 39 5 47 -1 8 3 18 11 22 9 6 14 37 17 94 2 71 0 89
-15 106 -9 10 -25 19 -35 19 -20 0 -22 8 -44 168 -20 151 -19 195 6 244 11 22
19 51 16 65 -2 13 0 26 4 29 15 9 10 102 -6 141 -30 71 -66 91 -98 56z m-1
-445 c-17 -70 -52 -137 -123 -233 -84 -115 -101 -144 -119 -215 -17 -69 -15
-120 13 -225 l15 -60 -56 -90 c-31 -49 -59 -96 -63 -103 -10 -17 -66 111 -89
200 -25 97 -8 197 69 394 47 123 80 184 114 216 30 28 233 168 245 168 3 0 1
-24 -6 -52z m34 -160 c0 -26 7 -68 15 -92 14 -42 14 -47 -2 -64 -10 -10 -38
-57 -63 -105 -54 -104 -58 -99 -59 63 0 99 2 118 19 140 11 14 20 32 20 40 0
8 12 26 25 39 14 13 25 31 25 40 0 14 2 14 10 1 5 -8 10 -36 10 -62z m88 -265
c-6 -105 -32 -171 -133 -324 -115 -176 -120 -189 -120 -306 l0 -102 -72 -66
-72 -65 -12 57 c-15 76 -6 203 21 284 15 45 66 130 169 284 81 121 161 248
177 281 16 34 33 58 38 54 5 -5 6 -48 4 -97z m-262 -199 l-24 -36 -8 47 c-9
62 1 166 23 235 l17 55 8 -133 c8 -130 8 -133 -16 -168z m275 -224 c5 -18
-122 -164 -132 -152 -3 4 -12 41 -19 83 l-12 77 45 63 c24 35 53 80 62 99 l18
35 18 -95 c9 -52 18 -102 20 -110z m-198 -242 l-32 -31 -6 37 c-7 36 4 97 27
153 11 27 12 24 26 -50 l16 -78 -31 -31z"/>
<path d="M8752 39718 c-41 -45 -70 -176 -41 -193 6 -4 8 -14 5 -22 -3 -8 6
-43 20 -79 19 -47 24 -75 20 -106 -34 -274 -38 -293 -65 -321 -23 -25 -26 -38
-29 -110 -3 -74 -1 -80 12 -63 9 10 18 46 22 79 6 56 8 58 20 36 12 -24 13
-23 38 30 17 38 27 80 32 144 l7 90 14 -36 c9 -20 21 -37 29 -37 8 0 14 -10
14 -22 0 -11 12 -37 26 -56 l27 -34 -9 -142 -9 -141 -38 60 c-21 33 -47 75
-58 94 -16 27 -23 31 -30 20 -5 -8 -9 -22 -9 -31 0 -9 69 -120 154 -246 84
-126 164 -255 176 -288 26 -66 37 -204 25 -300 -8 -65 -6 -65 -106 2 -67 44
-67 45 -58 77 6 17 10 66 11 108 1 92 -12 124 -110 276 -75 116 -125 211 -136
256 -11 44 -23 23 -23 -41 -1 -66 -51 -315 -65 -320 -19 -8 -38 -64 -38 -113
0 -47 -4 -55 -39 -89 -36 -35 -81 -127 -81 -166 0 -8 -4 -13 -9 -10 -13 9 -71
-52 -87 -91 -8 -18 -14 -44 -14 -58 0 -22 -4 -25 -34 -25 -46 0 -98 -23 -135
-60 l-30 -31 -27 53 c-23 46 -28 68 -32 171 -5 119 -13 138 -42 102 -12 -14
-10 -108 4 -240 1 -11 23 -65 49 -119 97 -202 109 -277 82 -509 -9 -81 -14
-155 -11 -163 4 -9 15 -14 28 -12 21 3 24 12 39 113 22 141 23 323 4 394 -8
30 -25 77 -39 105 l-25 50 24 32 c25 32 97 74 128 74 12 0 17 -8 17 -27 0 -16
11 -73 24 -128 25 -104 41 -207 54 -355 6 -72 10 -85 26 -88 18 -4 19 2 13
129 -5 87 -17 185 -37 279 -37 178 -39 256 -8 319 l23 46 6 -56 c8 -75 90
-340 107 -346 34 -14 33 17 -7 157 -46 159 -53 248 -25 339 15 53 73 131 74
100 0 -25 91 -158 163 -241 35 -41 69 -83 76 -95 15 -29 13 -89 -4 -138 -17
-47 -18 -55 -6 -55 9 0 44 78 55 123 5 20 11 27 22 23 24 -9 -6 39 -70 114
-112 129 -186 225 -202 258 -11 24 -15 53 -12 97 7 115 39 118 112 9 71 -107
169 -207 262 -270 l86 -59 -6 -100 c-13 -184 -48 -342 -113 -510 -53 -136
-154 -334 -232 -453 -97 -148 -124 -212 -196 -459 -11 -39 -11 -42 12 -52 36
-17 52 -13 57 12 37 178 86 295 195 466 90 140 188 341 235 482 57 174 77 291
86 514 5 110 13 218 19 240 6 22 11 57 11 77 0 21 22 89 54 165 79 187 90 230
83 338 -6 96 -52 265 -109 403 -31 74 -92 148 -147 176 -20 11 -33 33 -56 100
-16 47 -32 86 -36 86 -12 0 -20 -89 -10 -109 9 -17 8 -18 -12 -14 -12 3 -26
11 -32 17 -5 6 -27 24 -48 39 -44 34 -64 70 -77 140 -11 56 -1 140 19 160 12
12 49 -64 92 -187 20 -58 25 -65 30 -45 13 45 9 104 -11 147 -10 23 -23 42
-29 42 -5 0 -7 8 -5 18 5 20 -45 96 -67 100 -8 1 -25 -8 -37 -20z m253 -518
c75 -56 93 -79 134 -176 103 -237 130 -382 96 -500 -20 -69 -84 -214 -95 -214
-4 0 -11 12 -14 28 -4 15 -29 63 -56 107 l-48 81 21 59 c16 45 21 84 22 155 0
87 -3 100 -32 160 -18 36 -64 108 -103 160 -69 93 -102 160 -115 234 l-8 37
74 -47 c41 -26 97 -64 124 -84z m0 -480 c0 -58 -4 -114 -8 -125 -7 -17 -11
-14 -35 25 -28 45 -28 46 -24 190 l5 145 31 -65 c29 -60 31 -73 31 -170z
m-188 -241 l32 -46 -18 -102 c-10 -56 -21 -104 -23 -107 -3 -2 -17 19 -32 46
-15 28 -43 71 -62 95 l-34 46 21 115 22 115 31 -58 c17 -32 46 -79 63 -104z
m102 -259 c0 -41 -4 -84 -8 -94 -6 -17 -10 -15 -37 18 l-31 37 18 92 c10 50
19 94 20 97 0 3 9 -13 20 -35 13 -29 18 -61 18 -115z"/>
<path d="M4267 39503 c-61 -65 -79 -148 -91 -438 -5 -117 -4 -132 14 -155 10
-14 21 -23 23 -20 3 3 10 91 17 195 13 228 23 293 50 350 22 44 48 64 60 45 4
-7 10 -53 13 -103 3 -51 17 -150 31 -220 19 -95 26 -160 26 -246 0 -129 2
-138 83 -333 27 -65 60 -124 83 -151 22 -25 41 -44 42 -42 8 8 -33 127 -90
258 l-60 140 -9 141 c-5 79 -17 176 -29 221 -11 44 -25 132 -31 195 -11 112
-12 116 -47 153 -20 20 -41 37 -47 37 -6 0 -23 -12 -38 -27z"/>
<path d="M7899 38531 c-19 -15 -22 -32 -29 -142 -5 -68 -20 -174 -33 -234 -29
-127 -41 -205 -32 -205 27 0 44 24 50 72 4 29 16 94 27 143 10 50 24 144 29
210 5 65 11 121 13 122 11 11 40 -17 61 -58 25 -48 45 -170 45 -271 0 -51 4
-55 34 -33 17 13 18 24 14 122 -7 127 -31 203 -80 250 -42 39 -72 46 -99 24z"/>
<path d="M4577 38309 c24 -141 12 -273 -41 -486 -25 -101 -50 -207 -54 -238
-9 -54 -9 -55 16 -55 22 0 24 3 19 34 -3 19 -2 36 2 38 15 6 102 382 112 483
5 55 6 131 3 169 -6 59 -12 75 -39 105 l-32 35 14 -85z"/>
<path d="M3551 38226 c-15 -17 24 -94 96 -191 80 -108 91 -119 110 -104 19 16
18 17 -76 142 -44 59 -83 118 -87 131 -7 29 -28 40 -43 22z"/>
<path d="M7824 37915 c-16 -11 -22 -29 -27 -77 -4 -46 -20 -97 -60 -189 -85
-194 -98 -244 -104 -395 -6 -132 9 -287 29 -311 5 -7 7 -17 4 -22 -6 -9 34
-44 42 -37 2 3 -4 42 -13 88 -21 101 -22 263 -2 373 8 44 39 139 67 210 86
213 99 256 100 318 0 61 -4 65 -36 42z"/>
<path d="M4124 37856 c-8 -20 96 -148 116 -144 33 7 21 45 -30 102 -52 56 -76
68 -86 42z"/>
<path d="M3649 37512 c5 -9 17 -26 25 -37 16 -19 16 -19 14 9 -2 19 -10 32
-26 37 -19 7 -21 6 -13 -9z"/>
<path d="M4477 37493 c-4 -3 -7 -20 -7 -37 0 -17 -6 -52 -14 -77 -8 -25 -16
-63 -18 -85 -3 -36 -1 -39 22 -39 23 0 26 5 31 55 3 30 11 73 18 95 17 61 14
95 -7 95 -10 0 -22 -3 -25 -7z"/>
<path d="M3635 37440 c10 -79 113 -359 181 -494 84 -167 246 -375 308 -396 61
-20 94 3 172 120 l68 102 -24 19 c-14 10 -29 19 -35 19 -5 0 -25 -28 -43 -63
-17 -35 -50 -81 -72 -102 -39 -38 -40 -38 -61 -19 -42 38 -147 171 -201 254
-90 137 -187 345 -203 433 -4 21 -27 68 -52 105 l-45 67 7 -45z"/>
<path d="M4270 37360 c-21 -41 -20 -60 4 -60 18 0 51 64 43 84 -10 26 -25 19
-47 -24z"/>
<path d="M4200 37220 c-33 -66 -36 -80 -17 -80 20 0 89 123 74 132 -21 14 -26
9 -57 -52z"/>
<path d="M8672 37212 c-5 -15 -46 -77 -91 -136 -81 -108 -91 -129 -69 -142 25
-15 197 217 201 271 3 41 -27 46 -41 7z"/>
<path d="M4430 37163 c0 -80 -46 -221 -92 -286 l-22 -30 30 -23 c23 -19 31
-21 41 -11 34 35 93 265 93 364 0 39 -2 43 -25 43 -24 0 -25 -3 -25 -57z"/>
<path d="M8078 36848 c-78 -84 -96 -128 -51 -128 22 0 115 115 111 137 -5 29
-28 26 -60 -9z"/>
<path d="M7683 36839 c3 -13 17 -73 31 -134 14 -60 26 -132 26 -160 0 -27 9
-92 20 -144 11 -52 20 -115 20 -141 0 -46 10 -60 41 -60 16 0 10 102 -11 180
-11 41 -20 100 -20 130 0 52 -24 183 -49 276 -7 26 -21 48 -37 59 -26 17 -27
17 -21 -6z"/>
<path d="M7940 36388 c0 -18 116 -222 135 -238 29 -24 16 17 -42 135 -41 82
-63 115 -75 115 -10 0 -18 -6 -18 -12z"/>
<path d="M8461 36325 c-17 -20 -28 -41 -25 -50 9 -23 8 -23 80 33 28 23 28 24
10 38 -27 19 -30 19 -65 -21z"/>
<path d="M8543 36288 c-12 -13 -33 -52 -46 -88 -14 -36 -28 -72 -31 -81 -6
-13 -1 -15 24 -11 27 4 32 10 49 67 22 70 36 135 29 135 -3 0 -14 -10 -25 -22z"/>
<path d="M7785 36123 c13 -96 15 -101 36 -96 19 5 20 11 14 67 -9 72 -10 76
-36 76 -18 0 -20 -5 -14 -47z"/>
<path d="M8470 36072 c-20 -2 -34 -20 -68 -80 -57 -102 -158 -242 -230 -320
-56 -61 -60 -63 -86 -51 -20 10 -39 37 -72 107 -25 52 -70 130 -100 174 -29
43 -54 83 -54 89 0 12 -27 12 -35 -1 -4 -6 18 -52 49 -103 30 -51 72 -131 92
-180 52 -126 101 -170 170 -153 33 9 120 101 201 213 62 86 168 284 162 300
-2 4 -15 7 -29 5z"/>
<path d="M13977 30089 c-202 -26 -389 -137 -491 -291 -82 -122 -114 -302 -86
-474 l12 -76 -31 -32 c-37 -38 -69 -109 -77 -170 l-7 -45 -28 39 c-45 61 -59
60 -201 -13 -116 -60 -125 -63 -146 -49 -29 19 -69 3 -78 -31 -5 -23 -8 -24
-34 -14 -24 9 -32 8 -49 -7 -11 -10 -23 -27 -27 -38 -4 -15 -9 -17 -19 -8 -21
18 -58 8 -71 -19 l-12 -23 -11 21 c-11 20 -59 51 -81 51 -6 0 -15 -11 -21 -24
-10 -21 -6 -35 20 -91 21 -47 31 -82 31 -116 0 -27 9 -72 19 -100 15 -37 17
-57 10 -76 -14 -37 -11 -114 5 -132 21 -23 21 -35 6 -162 -19 -169 -10 -293
26 -366 27 -54 34 -61 104 -95 90 -44 201 -74 328 -89 176 -21 372 21 499 108
53 36 62 40 68 25 4 -9 20 -53 35 -98 15 -45 38 -99 50 -120 l23 -39 -31 -62
c-68 -133 -110 -278 -119 -407 -9 -142 27 -263 106 -349 40 -43 41 -46 41
-113 0 -38 7 -98 16 -134 20 -87 90 -229 155 -315 64 -85 199 -218 302 -300
49 -39 76 -67 76 -80 1 -12 12 -64 26 -116 22 -87 24 -103 15 -206 -13 -167 3
-254 57 -306 35 -33 72 -44 167 -53 151 -13 254 66 307 236 19 59 20 81 14
225 -7 185 -16 228 -51 252 -68 48 -82 65 -104 125 -25 70 -47 101 -64 91 -6
-3 -8 -3 -4 1 3 4 0 26 -8 49 -13 38 -13 42 3 51 10 5 34 26 54 45 54 54 64
115 45 273 -8 68 -14 153 -13 189 1 39 -3 72 -10 80 -7 8 -12 24 -12 34 1 11
-2 30 -6 42 l-7 22 53 -21 c39 -15 76 -21 134 -21 l80 1 2 -42 c2 -25 22 -81
54 -146 71 -147 74 -181 20 -297 -47 -103 -50 -133 -18 -185 30 -50 74 -82
185 -134 51 -24 95 -51 99 -60 3 -8 -5 -38 -18 -67 -33 -70 -33 -163 1 -232
51 -106 226 -241 302 -233 50 5 46 29 -17 110 -88 112 -109 160 -109 243 0 73
13 112 60 168 l24 29 0 -64 c0 -150 67 -306 193 -452 39 -44 52 -44 116 7 69
55 111 118 126 191 8 36 43 129 80 206 77 165 100 243 92 316 -9 87 -29 134
-79 189 -80 88 -89 129 -66 294 10 74 9 87 -6 116 -10 18 -36 43 -59 56 -39
22 -52 24 -198 25 -209 0 -216 5 -280 192 -42 120 -85 173 -144 175 l-40 2 23
80 c33 110 41 316 17 465 -9 58 -19 122 -22 143 l-6 38 39 -6 c21 -4 86 -15
144 -25 58 -10 121 -21 141 -24 28 -5 38 -12 43 -30 9 -38 45 -75 145 -150
123 -92 117 -89 141 -76 47 25 43 102 -7 169 -22 29 -23 32 -7 28 56 -16 135
-27 156 -22 30 8 118 88 118 108 0 8 -9 25 -19 38 -13 16 -17 33 -14 54 9 54
-74 124 -147 125 -25 0 -25 0 5 19 76 47 85 100 20 121 -41 14 -136 -3 -262
-46 l-72 -25 -63 53 c-35 30 -99 76 -143 103 -173 106 -261 165 -287 192 -23
25 -26 38 -31 123 -13 236 -129 367 -304 345 -50 -6 -54 -5 -50 12 34 115 39
216 14 276 -9 20 -28 48 -42 61 -23 22 -26 33 -31 115 -19 358 -243 602 -597
650 -88 12 -113 12 -210 0z m267 -49 c217 -55 390 -220 450 -430 37 -128 48
-301 31 -463 -8 -72 -19 -79 -30 -20 -27 147 -171 276 -352 319 -95 22 -283
14 -373 -16 -137 -46 -243 -120 -301 -210 -18 -28 -34 -48 -37 -46 -7 8 28
215 54 317 36 144 79 260 145 391 71 139 91 165 127 171 78 12 213 6 286 -13z
m-391 -82 c-107 -157 -195 -372 -223 -541 -5 -34 -10 -102 -10 -151 l0 -90
-31 32 c-17 18 -36 32 -41 32 -16 0 17 303 48 430 23 94 85 218 136 269 36 36
145 101 170 101 4 0 -18 -37 -49 -82z m-188 -70 c-42 -69 -83 -161 -112 -255
-24 -78 -27 -105 -27 -234 l-1 -145 -40 0 c-25 1 -42 6 -47 16 -13 30 -8 231
8 294 22 86 68 177 122 244 39 48 110 120 120 122 2 0 -9 -19 -23 -42z m688
-494 c127 -33 226 -100 288 -197 46 -72 49 -87 10 -55 -43 37 -108 51 -203 46
-95 -6 -189 -38 -225 -76 l-23 -25 -39 36 c-50 45 -107 61 -193 54 -79 -7
-201 -47 -234 -78 -35 -33 -64 -100 -64 -148 0 -37 6 -49 34 -76 46 -43 111
-60 226 -59 77 1 109 6 170 28 41 15 80 27 85 27 6 0 37 -11 71 -25 110 -46
250 -55 338 -20 18 7 19 4 12 -36 -19 -117 -129 -244 -283 -323 -103 -53 -152
-59 -257 -32 -244 64 -468 332 -423 505 10 38 5 164 -8 193 -11 26 119 151
200 194 58 30 163 68 215 76 67 11 246 6 303 -9z m454 -146 c37 -71 15 -246
-36 -292 -18 -16 -18 -15 -10 26 4 24 8 84 9 133 0 84 8 165 16 165 2 0 11
-15 21 -32z m-1257 -28 c15 -11 37 -43 50 -72 19 -44 22 -65 18 -137 -5 -97
-27 -151 -78 -195 -48 -40 -69 -34 -31 9 17 20 31 37 31 39 0 2 5 28 10 57 19
100 -17 259 -68 299 l-25 20 33 0 c17 0 44 -9 60 -20z m-82 -12 c11 -13 26
-36 33 -53 25 -63 7 -268 -28 -323 -11 -18 -22 -22 -46 -20 -27 3 -36 10 -57
53 -33 66 -39 172 -15 245 16 47 67 120 84 120 4 0 17 -10 29 -22z m640 -87
c57 -29 54 -35 -5 -9 -26 11 -81 24 -123 29 l-75 8 80 -3 c59 -2 91 -8 123
-25z m494 11 c37 -15 68 -68 67 -112 -1 -26 -3 -29 -6 -10 -13 80 -40 104
-138 121 -133 23 -265 -20 -295 -96 -8 -19 -8 -19 -16 -1 -11 28 15 67 61 94
38 22 48 23 170 19 72 -3 142 -9 157 -15z m-800 -23 c-34 -22 -62 -65 -62 -96
0 -12 6 -8 20 15 27 44 73 70 138 78 59 7 165 -7 209 -28 34 -16 50 -58 37
-95 -21 -61 -194 -108 -310 -84 -66 13 -94 33 -95 70 l0 26 -10 -25 c-7 -16
-7 -32 0 -46 22 -48 237 -74 339 -40 27 9 62 30 78 47 24 25 29 38 28 77 -1
42 0 44 9 19 34 -101 -54 -165 -237 -174 -116 -6 -176 6 -214 44 -23 23 -24
29 -19 95 7 82 25 114 70 127 50 14 55 12 19 -10z m755 -28 c48 -22 63 -45 63
-95 0 -71 -57 -91 -237 -80 -110 6 -125 9 -135 27 -14 27 4 86 35 115 55 52
195 68 274 33z m-1313 -54 c43 -56 113 -313 92 -335 -19 -18 -104 136 -130
235 -32 122 -14 168 38 100z m-89 -61 c12 -118 51 -214 113 -278 26 -27 32
-39 21 -42 -8 -3 -50 -14 -94 -26 -44 -11 -87 -23 -96 -26 -13 -4 -17 6 -22
52 -12 119 -112 145 -131 34 -4 -19 -3 -48 2 -65 7 -25 5 -34 -16 -53 -26 -24
-171 -82 -207 -82 -50 0 -101 86 -111 188 -6 54 -5 61 15 71 17 10 21 9 21 -3
0 -25 50 -76 76 -76 25 0 44 25 44 60 0 20 1 20 25 4 33 -21 71 -6 81 30 5 22
9 24 26 15 47 -25 89 48 68 121 -6 19 -7 36 -3 38 5 1 44 25 88 52 44 27 83
50 86 50 4 0 10 -29 14 -64z m-215 -38 c24 -40 26 -101 4 -122 -18 -18 -17
-18 -39 -10 -23 9 -45 58 -45 102 0 67 46 85 80 30z m1290 -1 c0 -42 266 -74
355 -44 40 14 45 14 35 2 -35 -42 -205 -58 -328 -30 -87 20 -95 26 -86 58 6
28 24 37 24 14z m-1405 -50 c18 -28 23 -103 8 -118 -17 -17 -49 6 -62 42 -12
36 -15 82 -4 92 14 14 43 6 58 -16z m2157 -9 c57 -24 122 -92 148 -154 17 -38
42 -154 35 -154 -2 0 -33 17 -69 39 -101 59 -165 76 -281 76 -55 0 -113 -4
-129 -9 -27 -8 -28 -7 -21 10 5 10 22 60 39 109 16 50 31 92 33 94 2 3 22 8
46 12 60 10 144 1 199 -23z m-321 -55 c-12 -37 -28 -79 -36 -93 -13 -23 -14
-19 -8 45 4 56 11 75 31 97 14 15 28 26 30 23 2 -2 -5 -35 -17 -72z m-2057 15
c34 -39 35 -43 19 -60 -25 -28 -39 -22 -52 25 -7 23 -15 50 -17 60 -9 29 13
19 50 -25z m1062 -137 c40 -81 134 -169 235 -221 61 -30 74 -40 49 -35 -177
34 -312 127 -385 268 l-29 55 42 47 c23 26 43 53 43 59 1 6 5 -18 10 -53 4
-35 20 -89 35 -120z m-940 94 c16 -44 13 -65 -10 -65 -21 0 -40 60 -37 114 2
29 27 3 47 -49z m715 -35 c16 -5 41 -5 56 -1 27 7 29 5 45 -48 9 -30 16 -56
15 -56 -1 0 -35 -11 -75 -24 -137 -43 -286 -166 -373 -311 l-36 -59 -47 60
c-26 34 -46 62 -44 63 2 1 19 12 39 24 45 27 73 82 66 127 l-5 33 118 41 c66
22 126 38 133 35 8 -3 22 3 32 12 14 15 16 29 11 76 -6 57 -5 58 16 47 11 -6
34 -15 49 -19z m-414 -62 c42 -47 57 -152 28 -207 -15 -30 -70 -81 -86 -81 -6
0 -25 11 -42 24 -18 14 -45 27 -62 31 -71 16 -72 17 -30 30 32 9 42 9 48 -2
12 -19 25 -16 32 10 4 12 19 34 33 50 22 23 25 35 23 77 -4 88 16 112 56 68z
m1883 -89 c103 -28 250 -107 356 -191 54 -43 139 -95 217 -134 196 -99 242
-152 217 -253 -6 -27 -25 -68 -43 -91 l-30 -42 -64 6 c-129 13 -490 117 -619
177 -24 12 -57 35 -74 52 -16 17 -39 31 -49 32 -20 2 -20 1 0 -26 48 -67 137
-126 264 -174 l60 -23 -3 -39 c-2 -21 -5 -39 -6 -41 -5 -4 -135 47 -199 79
-82 41 -141 90 -172 142 -28 49 -58 165 -80 320 -9 60 -23 132 -30 160 -10 39
-10 54 -2 59 25 16 182 8 257 -13z m-265 -154 c27 -274 72 -411 164 -503 57
-57 116 -87 214 -109 89 -19 117 -36 117 -68 0 -31 -19 -32 -122 -6 -289 74
-451 312 -475 695 l-6 103 44 26 c24 14 44 25 46 24 1 -2 9 -74 18 -162z
m-1089 113 c-38 -233 -32 -446 15 -598 36 -118 20 -142 -136 -199 -271 -98
-575 -71 -733 66 -46 40 -62 122 -62 334 l0 165 36 18 c56 26 125 36 185 27
47 -8 60 -15 97 -56 57 -64 105 -152 170 -314 29 -75 58 -140 63 -145 14 -16
10 92 -6 162 -8 35 -27 88 -41 119 -25 52 -26 57 -12 87 40 81 187 247 273
306 43 30 126 68 149 70 5 0 5 -19 2 -42z m84 -161 c0 -94 6 -160 25 -253 27
-138 31 -243 11 -289 l-14 -30 -21 50 c-50 114 -63 196 -68 438 -3 125 -2 239
1 254 l7 26 29 -34 c29 -34 29 -35 30 -162z m887 79 c-7 -91 7 -250 28 -331
37 -143 126 -276 224 -333 l46 -27 -35 -5 c-19 -4 -80 -2 -135 3 -149 14 -324
14 -372 -1 -61 -18 -144 -98 -176 -170 -62 -136 -41 -294 74 -585 22 -53 39
-102 39 -107 0 -6 -18 3 -40 19 -120 87 -374 66 -486 -41 l-31 -29 -7 68 c-8
81 7 227 35 335 21 84 67 217 80 232 4 4 22 3 41 -2 18 -6 80 -13 138 -15
l105 -4 -60 18 c-33 10 -85 25 -116 33 -107 30 -160 87 -188 204 -11 46 -11
55 2 70 44 48 51 158 18 292 -18 79 -40 214 -57 353 -6 57 2 71 25 43 6 -7 39
-26 74 -42 53 -24 81 -29 192 -35 72 -4 155 -15 185 -24 30 -8 66 -13 78 -10
l24 6 -28 -52 c-30 -55 -66 -89 -95 -89 -28 0 -75 46 -111 108 -39 69 -48 50
-17 -34 38 -103 110 -155 169 -124 26 14 66 85 80 142 12 45 15 48 64 64 57
18 181 91 210 123 11 12 21 21 24 21 3 0 2 -33 -1 -74z m-1854 -53 c-43 -29
-43 -29 -43 6 0 55 8 62 44 38 l32 -22 -33 -22z m110 40 c-7 -2 -19 -2 -25 0
-7 3 -2 5 12 5 14 0 19 -2 13 -5z m72 -53 c14 -6 3 -9 -40 -10 -33 0 -83 -9
-112 -19 -56 -19 -60 -11 -9 20 33 20 123 25 161 9z m3195 -240 c0 -6 -30 -25
-67 -43 -90 -43 -89 -60 3 -68 95 -9 154 -40 154 -82 0 -14 -4 -17 -17 -12
-63 26 -172 56 -197 53 -53 -5 -38 -23 36 -41 88 -20 202 -75 206 -99 2 -11
-6 -22 -22 -30 -23 -10 -30 -8 -55 16 -35 33 -119 66 -169 66 -36 -1 -36 -2
26 -25 66 -26 152 -80 152 -95 0 -15 -50 -12 -106 5 -59 18 -85 19 -119 3 -33
-15 -32 -29 4 -50 29 -16 71 -83 71 -112 0 -31 -21 -26 -67 17 -27 24 -69 58
-94 75 -84 57 -124 119 -95 151 29 32 46 90 46 155 0 77 5 82 107 95 38 5 79
14 93 19 33 14 110 15 110 2z m-799 -266 c12 -7 34 -284 34 -429 0 -150 -10
-218 -44 -298 -16 -37 -16 -31 -16 155 0 175 -2 199 -22 251 -12 32 -32 71
-44 88 -19 27 -20 32 -6 47 24 27 30 67 14 98 -11 20 -12 36 -4 66 9 38 10 38
46 32 20 -4 39 -8 42 -10z m-586 -159 c33 -16 81 -50 107 -77 169 -174 166
-509 -7 -706 l-40 -46 -6 160 c-4 103 -12 177 -22 209 -20 62 -69 137 -104
160 l-26 17 27 -35 c68 -89 86 -210 71 -479 l-7 -134 -97 4 c-89 4 -167 -7
-233 -33 -11 -4 -19 -2 -22 6 -2 8 -36 111 -75 229 -39 118 -77 244 -86 280
-17 75 -20 218 -5 272 25 87 118 165 235 195 29 7 88 11 140 9 74 -2 101 -8
150 -31z m310 -26 c162 -24 227 -164 204 -439 -5 -63 -14 -140 -20 -170 -24
-120 -111 -232 -206 -264 -52 -18 -178 -21 -217 -6 -35 13 -34 45 2 64 46 24
120 105 147 160 72 150 74 352 4 500 -25 53 -91 131 -134 158 l-30 19 95 -7
c52 -3 122 -10 155 -15z m-884 -783 c109 -23 142 -45 167 -111 12 -31 22 -62
22 -68 0 -7 -18 -13 -43 -14 -144 -5 -256 -100 -257 -216 0 -91 18 -116 190
-255 175 -142 240 -173 357 -173 69 0 71 -1 83 -30 42 -99 -53 -214 -198 -241
l-60 -11 -87 67 c-343 269 -521 593 -485 884 11 80 26 140 41 157 23 24 178
30 270 11z m-315 -31 c-3 -9 -11 -46 -17 -83 -17 -102 -17 -102 -49 -63 -56
66 -47 114 25 146 40 18 48 18 41 0z m724 -140 c-25 -8 -55 -23 -65 -33 -16
-15 -25 -16 -57 -8 -47 12 -48 21 -5 35 52 16 69 19 122 19 l50 1 -45 -14z
m124 -39 c42 -18 47 -42 39 -185 -6 -119 -1 -161 23 -161 12 0 14 -12 12 -62
-2 -35 -7 -63 -13 -62 -5 0 -46 57 -90 127 -101 160 -141 208 -210 249 -59 36
-74 65 -27 54 42 -11 112 -57 144 -97 16 -20 40 -62 53 -95 28 -68 45 -80 45
-31 0 49 -54 150 -105 195 -43 37 -43 38 -22 52 50 31 102 36 151 16z m-306
-44 c3 -9 -7 -11 -40 -6 -75 12 -88 24 -24 21 38 -1 61 -7 64 -15z m-131 2
c-3 -3 -12 -4 -19 -1 -8 3 -5 6 6 6 11 1 17 -2 13 -5z m-82 -104 c-39 -39 -71
-66 -73 -62 -1 5 7 34 18 65 22 58 30 64 90 66 l34 1 -69 -70z m192 46 c22
-11 16 -17 -99 -109 l-122 -97 -20 20 -21 20 95 95 c100 100 105 102 167 71z
m103 -62 c29 -25 30 -28 14 -45 -9 -10 -47 -42 -84 -70 -66 -50 -117 -105
-107 -116 11 -11 73 33 147 104 l79 75 31 -48 c16 -26 30 -53 30 -59 0 -6 -14
-21 -31 -34 -16 -12 -61 -51 -98 -86 l-67 -64 -100 86 c-54 47 -100 89 -101
92 -3 9 230 191 244 191 6 0 26 -12 43 -26z m152 -211 c18 -16 25 -43 10 -43
-4 0 -41 -31 -81 -70 l-73 -69 -34 17 -33 17 92 82 c51 45 94 82 96 82 3 1 13
-6 23 -16z m98 -83 c29 -24 33 -32 24 -47 -31 -51 -118 -81 -201 -68 l-45 7
48 33 c27 19 67 50 89 69 22 19 42 35 45 35 3 0 21 -13 40 -29z m29 -343 c1
-21 7 -53 15 -71 12 -30 12 -38 -4 -74 -23 -51 -92 -121 -145 -147 -22 -10
-67 -21 -100 -23 l-60 -4 -37 70 c-21 38 -38 76 -38 83 0 10 16 14 63 15 76 1
164 37 219 91 36 35 50 60 64 118 l7 30 7 -25 c5 -14 8 -42 9 -63z m92 -284
c17 -170 -4 -307 -60 -395 -40 -63 -96 -92 -178 -91 -69 1 -101 16 -130 60
-16 24 -18 49 -15 202 2 97 4 177 6 178 1 1 18 -2 37 -7 47 -14 127 4 180 39
49 33 96 99 105 148 l7 35 18 -30 c13 -20 23 -64 30 -139z m45 126 c10 -20 13
-40 9 -58 -7 -23 -9 -20 -21 29 -7 30 -13 56 -14 58 -2 12 13 -4 26 -29z m11
-394 c-7 -75 -25 -115 -75 -167 -48 -50 -64 -49 -19 1 36 40 75 130 84 194 9
62 16 41 10 -28z"/>
<path d="M14233 28794 c34 -40 12 -73 -50 -75 l-28 0 25 -10 c29 -12 62 -5 84
17 24 23 19 40 -16 65 -29 20 -31 21 -15 3z"/>
<path d="M14307 28642 c-30 -15 -71 -26 -111 -29 -71 -6 -165 12 -173 33 -6
16 -46 19 -41 3 7 -20 139 -59 198 -59 45 0 71 7 119 32 33 17 61 35 61 40 0
4 -1 7 -2 7 -2 -1 -24 -13 -51 -27z"/>
<path d="M14168 28513 c6 -2 18 -2 25 0 6 3 1 5 -13 5 -14 0 -19 -2 -12 -5z"/>
<path d="M13875 29011 c-12 -5 -27 -17 -35 -27 -14 -16 -13 -17 5 -9 36 15 92
17 146 6 64 -14 75 -7 23 15 -47 20 -112 27 -139 15z"/>
<path d="M14404 29036 c-36 -16 -60 -45 -28 -32 42 16 110 18 153 3 l44 -16
-25 26 c-31 31 -98 40 -144 19z"/>
<path d="M14005 28136 c-94 -43 -141 -122 -133 -222 6 -70 46 -130 108 -162
87 -45 228 -16 277 57 73 108 39 261 -72 327 -54 31 -114 31 -180 0z m140 -15
c73 -33 135 -123 135 -196 -1 -30 -34 -97 -61 -122 -31 -28 -90 -53 -126 -53
-76 1 -163 73 -190 157 -14 44 -15 59 -4 94 17 58 47 95 95 119 51 25 99 25
151 1z"/>
<path d="M15800 8140 c-8 -5 -28 -10 -44 -10 -86 0 -178 -64 -215 -150 -24
-56 -45 -198 -36 -241 5 -23 0 -37 -27 -70 -32 -40 -33 -45 -36 -144 -3 -87
-1 -110 17 -149 11 -26 30 -51 44 -57 32 -14 37 -45 37 -219 l0 -136 -44 -37
c-94 -78 -137 -231 -117 -410 6 -50 14 -109 17 -130 7 -37 6 -38 -19 -32 -33
9 -89 -10 -127 -42 -27 -22 -33 -23 -64 -13 -73 24 -95 -22 -40 -81 13 -14 24
-37 24 -51 l0 -27 -90 6 c-74 5 -94 3 -115 -11 -33 -21 -30 -55 5 -73 14 -7
51 -13 82 -13 31 0 69 -5 83 -12 27 -12 29 -26 10 -70 -5 -13 -3 -18 9 -18 9
0 16 4 16 9 0 5 6 9 13 8 6 0 20 1 30 1 17 2 17 3 3 18 -24 23 -20 31 18 38
51 10 64 31 43 68 -21 37 -22 70 -1 114 18 37 43 61 30 28 -4 -10 -9 -32 -12
-49 -3 -20 1 -15 10 14 8 25 13 48 11 52 -12 18 35 27 200 38 249 15 227 18
209 -24 -7 -19 -14 -50 -14 -69 0 -24 -8 -43 -25 -60 -28 -28 -33 -64 -11 -72
12 -5 11 -11 -5 -37 -10 -18 -19 -49 -19 -71 0 -38 -1 -38 -31 -32 -17 3 -76
6 -131 6 -88 0 -99 2 -94 16 8 22 -11 44 -38 43 -21 0 -21 -1 2 -11 12 -6 21
-16 19 -21 -6 -19 -82 -39 -149 -40 -69 -1 -86 -10 -46 -23 29 -9 47 -33 48
-60 0 -51 64 -64 174 -35 44 12 88 29 99 38 19 18 20 17 12 -42 -8 -73 -60
-279 -80 -318 -14 -29 -22 -75 -50 -312 -9 -71 -31 -195 -49 -275 -30 -134
-37 -151 -79 -208 -58 -79 -62 -93 -41 -137 23 -49 50 -65 107 -65 53 0 89
-16 156 -67 58 -44 104 -57 159 -45 l42 10 0 -104 c0 -58 6 -169 14 -247 8
-78 17 -187 21 -242 3 -55 13 -148 21 -207 l15 -107 -26 -25 c-14 -14 -25 -32
-25 -40 0 -9 -26 -42 -57 -74 -44 -44 -73 -64 -118 -81 -88 -32 -106 -43 -127
-76 -25 -41 -23 -68 8 -104 54 -65 227 -82 366 -35 72 24 79 24 100 10 12 -9
36 -16 53 -16 16 0 60 -7 97 -16 84 -20 143 -14 269 29 87 30 96 31 124 18 24
-12 37 -12 75 -2 86 23 90 29 90 134 -1 115 -11 171 -40 210 -23 30 -23 32
-10 144 21 192 17 274 -20 384 l-31 96 21 109 c12 60 24 146 27 190 l6 82 31
5 c17 3 62 24 101 46 54 32 80 41 116 41 80 0 142 25 213 88 36 31 79 67 96
80 16 13 30 30 30 38 0 8 -27 48 -60 89 -97 123 -133 214 -165 425 -20 130
-40 210 -105 418 -27 90 -50 171 -49 180 0 9 22 34 50 55 90 68 138 159 125
237 -3 20 -30 112 -61 204 -30 92 -70 232 -90 311 -57 236 -101 332 -189 413
-43 39 -43 40 -49 123 -5 85 -16 122 -96 331 -33 87 -42 122 -46 195 -9 185
-99 337 -240 406 -90 45 -304 73 -345 47z m181 -44 c42 -28 81 -89 98 -151 16
-60 26 -201 14 -208 -16 -10 -41 61 -53 146 -16 124 -50 174 -150 222 l-55 27
54 -6 c34 -3 69 -15 92 -30z m149 -21 c54 -27 119 -88 156 -146 59 -94 69
-173 39 -319 -17 -86 -17 -202 1 -220 6 -6 8 7 6 35 -5 53 16 185 29 185 5 0
9 -9 9 -19 0 -11 25 -91 55 -177 49 -141 92 -301 82 -310 -2 -2 -23 7 -48 19
-35 18 -61 22 -130 22 -65 0 -85 3 -82 13 3 6 0 12 -6 12 -18 0 -24 -47 -17
-133 20 -251 20 -245 -13 -374 -32 -125 -38 -194 -21 -251 8 -30 7 -32 -6 -21
-21 18 -51 78 -59 119 -7 39 10 463 19 495 4 11 -1 4 -11 -15 -12 -25 -19 -74
-23 -175 -4 -77 -12 -153 -19 -170 -16 -38 -57 -92 -80 -104 -15 -8 -14 -2 7
40 40 80 39 127 -3 259 -32 98 -37 123 -32 175 l6 60 -19 -41 c-15 -35 -26
-44 -66 -58 -82 -28 -233 -13 -219 22 3 7 5 21 5 29 0 13 2 13 16 2 11 -9 44
-14 93 -14 62 0 85 5 125 25 27 14 52 32 54 39 4 11 0 12 -14 6 -64 -27 -107
-37 -171 -42 -84 -7 -77 -14 -97 105 -14 81 -36 132 -56 132 -6 0 -4 -13 5
-29 20 -41 38 -165 30 -216 -4 -27 -27 -77 -61 -132 -71 -112 -92 -154 -103
-200 l-8 -38 -8 57 c-6 49 -4 61 14 87 12 17 31 52 43 78 23 51 26 135 12 325
l-7 87 34 -9 c22 -6 37 -6 43 0 6 6 22 10 37 10 89 0 210 67 244 135 l15 30 0
-37 c0 -54 38 -70 102 -44 15 7 14 1 -3 -56 -25 -84 -47 -234 -37 -250 4 -7 8
-25 8 -40 0 -29 49 -192 55 -186 2 2 -5 33 -17 68 -18 53 -22 90 -22 195 0
118 2 137 28 205 80 215 79 210 80 400 0 199 -11 253 -69 340 l-35 52 33 -7
c17 -4 52 -18 77 -30z m-245 1 c89 -42 118 -91 130 -220 6 -62 15 -94 41 -143
43 -80 43 -99 3 -108 -36 -8 -44 0 -53 54 -4 27 -20 51 -62 91 -30 30 -62 67
-70 82 -17 32 -18 101 -3 130 8 15 8 19 0 14 -6 -4 -11 -2 -11 5 0 15 -40 59
-53 59 -5 0 -3 -7 4 -16 12 -15 11 -16 -6 -11 -20 6 -132 11 -150 7 -5 -1 1
-5 15 -9 18 -5 8 -8 -33 -8 -56 0 -57 0 -44 21 8 12 38 33 67 49 69 36 153 37
225 3z m-46 -93 c19 -16 20 -22 10 -48 -7 -19 -9 -49 -5 -78 6 -40 18 -58 77
-122 38 -41 69 -78 69 -83 0 -8 -49 -82 -54 -82 -2 0 2 21 10 47 8 26 13 51
11 57 -5 15 -47 -118 -47 -149 0 -27 4 -23 37 33 20 34 40 62 44 62 17 0 18
-34 2 -53 -17 -19 -16 -19 25 2 l42 22 10 -25 c16 -43 1 -124 -28 -146 -46
-37 -111 -17 -99 30 3 11 1 18 -4 14 -5 -3 -9 3 -9 13 0 11 -9 3 -23 -21 -35
-62 -82 -93 -176 -117 -142 -36 -222 -14 -249 66 -20 60 -27 179 -12 214 14
34 19 37 40 19 12 -11 12 -10 1 4 -11 15 -10 22 5 44 39 55 54 79 54 89 0 6
-5 2 -11 -7 -14 -26 -29 -22 -29 6 0 16 7 27 20 31 24 8 27 25 4 25 -12 0 -14
4 -6 13 5 6 17 38 26 69 9 31 21 60 27 63 5 4 36 9 67 12 31 2 59 7 61 9 12
12 91 2 110 -13z m-273 -25 c-8 -18 -19 -44 -24 -58 -10 -22 -10 -21 -5 10 5
33 28 80 38 80 3 0 -2 -15 -9 -32z m868 -864 c137 -67 217 -191 281 -434 20
-74 65 -224 101 -332 71 -217 78 -271 44 -337 -43 -85 -202 -193 -287 -195
-60 -1 -80 22 -98 119 -9 43 -24 94 -35 112 l-19 33 60 0 c78 0 99 11 99 54 0
42 -15 54 -72 62 l-46 6 22 34 c18 28 27 33 62 34 22 0 61 -7 87 -16 70 -24
79 -11 14 20 -44 22 -66 27 -95 23 l-37 -6 -1 47 c0 26 -10 88 -21 137 -41
178 -37 310 12 442 13 34 20 63 15 63 -16 0 -59 -96 -76 -167 -21 -88 -13
-274 15 -391 12 -46 21 -93 21 -104 0 -13 -20 -41 -48 -68 -44 -43 -54 -47
-112 -53 -35 -4 -103 -7 -153 -7 -85 0 -90 1 -111 27 -11 15 -26 43 -33 61
-13 40 -47 78 -85 98 -36 19 -106 18 -143 -2 -24 -13 -257 -41 -259 -31 -1 1
0 48 2 105 3 102 3 102 22 80 24 -28 26 -9 4 33 -9 18 -16 60 -17 102 -2 77 4
93 91 252 l39 71 39 -18 c24 -11 64 -18 105 -18 54 0 73 4 103 25 l36 24 0
-33 c0 -18 12 -70 26 -117 33 -110 30 -188 -9 -248 -64 -96 -10 -123 79 -39
l31 29 6 -45 c4 -26 15 -63 26 -84 21 -40 97 -119 106 -110 3 3 1 25 -4 49
-16 70 -13 129 14 235 40 158 46 217 29 309 -22 121 -27 172 -20 191 10 26
117 14 190 -22z m-914 -205 c-10 -36 -20 -49 -20 -29 0 11 -3 11 -12 2 -9 -9
-13 -48 -13 -120 0 -92 3 -113 22 -148 21 -39 22 -51 16 -158 l-6 -116 -33 0
c-31 0 -33 2 -41 48 -4 26 -8 119 -8 207 0 183 15 251 66 310 17 19 33 35 34
35 2 0 0 -14 -5 -31z m436 -565 c14 -10 34 -35 45 -56 19 -37 19 -39 2 -30
-10 6 -37 31 -60 56 -48 52 -66 57 -89 21 -21 -32 -12 -84 22 -124 l25 -30
-45 -6 c-27 -4 -52 -2 -66 5 -12 6 -33 9 -47 5 -25 -6 -26 -5 -19 36 9 58 27
87 21 34 -4 -33 -3 -35 4 -13 18 54 47 91 86 110 44 20 81 18 121 -8z m-551
-4 c4 -6 -9 -10 -32 -10 -32 -1 -44 -7 -76 -45 -41 -48 -61 -98 -51 -128 5
-15 1 -18 -23 -15 -34 4 -41 30 -20 79 l14 34 -4 -55 -3 -55 13 46 c18 64 48
110 87 136 34 24 84 30 95 13z m507 -32 c13 -23 39 -52 58 -64 19 -13 46 -32
60 -43 l25 -20 -62 -1 c-61 0 -62 0 -92 42 -42 57 -54 128 -21 128 5 0 19 -19
32 -42z m-727 -8 c25 -9 25 -11 10 -34 -18 -27 -34 -26 -53 5 -22 34 -4 47 43
29z m1353 -139 c22 -14 9 -44 -22 -52 -15 -4 -127 -1 -248 7 -121 8 -241 14
-267 12 l-47 -3 45 -33 c26 -20 41 -27 38 -18 -6 14 13 16 173 16 l179 0 20
-25 c20 -27 41 -104 41 -155 l0 -29 -182 -3 -183 -3 -75 -34 c-81 -37 -141
-48 -180 -33 -24 9 -24 9 12 26 20 10 44 26 54 37 16 18 11 17 -37 -5 -58 -28
-89 -32 -120 -16 -30 17 -22 37 18 45 36 6 133 51 133 60 0 3 -23 -4 -50 -15
-104 -41 -174 -17 -168 58 2 27 8 38 22 40 16 3 18 0 12 -23 -6 -25 -5 -27 16
-20 13 3 45 11 72 15 27 5 56 16 66 25 9 8 25 15 36 16 10 0 -10 12 -46 26
-52 20 -75 23 -116 18 -60 -7 -78 11 -44 45 27 27 64 25 144 -5 66 -25 111
-33 69 -13 -33 16 -28 28 10 29 42 2 464 15 547 17 36 1 71 -2 78 -7z m-1323
-43 c46 -15 58 -42 23 -52 -64 -17 -124 8 -114 48 5 19 4 20 -8 4 -18 -25
-136 -22 -136 2 0 22 166 21 235 -2z m586 -49 c48 -11 51 -13 34 -25 -24 -17
-75 -18 -76 -1 0 6 -4 3 -9 -8 -7 -19 -8 -19 -18 5 -17 43 -10 46 69 29z
m-601 -64 c0 -5 -5 -3 -10 5 -5 8 -10 20 -10 25 0 6 5 3 10 -5 5 -8 10 -19 10
-25z m219 -74 c19 -12 -77 -41 -136 -41 -60 0 -54 15 15 33 68 18 102 20 121
8z m61 -15 c0 -23 -18 -48 -21 -29 -7 40 -5 53 7 53 8 0 14 -10 14 -24z m193
-4 c9 -8 21 -28 27 -45 7 -21 28 -44 60 -66 48 -32 53 -33 123 -29 48 3 92 13
132 31 88 39 135 46 289 47 l140 0 27 -32 c26 -31 30 -33 95 -33 46 1 80 7
102 19 19 9 36 16 38 14 5 -5 44 -161 41 -164 -15 -12 -189 -80 -264 -103
-295 -90 -584 -101 -860 -31 -64 16 -117 31 -118 32 -2 2 3 44 11 93 7 50 18
133 25 185 l12 95 52 0 c28 0 59 -6 68 -13z m-248 -48 c-48 -36 -167 -45 -173
-12 -4 18 22 23 133 26 55 1 58 0 40 -14z m1335 -254 c0 -38 -217 -161 -375
-213 -291 -96 -607 -85 -852 28 -77 35 -85 48 -55 84 l17 22 45 -20 c74 -33
263 -54 475 -54 276 0 446 33 630 123 55 26 103 49 108 49 4 1 7 -8 7 -19z
m43 -127 c17 -49 37 -144 52 -253 26 -181 47 -278 72 -339 15 -34 14 -36 -13
-57 -40 -32 -177 -100 -264 -129 -266 -92 -606 -99 -954 -20 -146 33 -336 93
-342 109 -2 6 7 58 20 115 14 57 34 178 46 270 30 247 31 252 38 249 4 -2 42
-20 84 -41 123 -61 247 -88 423 -94 112 -4 173 -1 241 11 206 35 394 118 522
228 18 15 36 28 40 28 4 0 20 -35 35 -77z m227 -707 l45 -48 -23 -17 c-13 -9
-46 -35 -73 -58 -69 -59 -101 -74 -188 -85 -57 -7 -92 -18 -146 -48 -48 -26
-89 -40 -130 -45 -33 -4 -98 -19 -145 -32 -116 -34 -182 -39 -257 -20 -58 15
-64 15 -117 -3 -71 -26 -76 -25 -173 7 -79 26 -86 26 -155 15 -90 -15 -121 -7
-195 50 -51 39 -61 43 -125 46 -65 4 -71 6 -88 34 -21 35 -20 41 23 124 l31
61 105 -34 c154 -49 367 -100 495 -119 202 -30 492 -9 701 51 94 27 265 105
325 149 19 14 37 24 40 23 3 -1 26 -24 50 -51z m-540 -403 c0 -32 -13 -119
-28 -194 l-29 -136 29 -114 c31 -122 37 -250 22 -442 -6 -86 -8 -90 -38 -108
-35 -22 -95 -25 -118 -6 -21 15 -79 277 -108 482 -12 83 -33 220 -46 306 -13
86 -24 171 -24 188 0 29 2 32 23 25 46 -15 112 -6 177 25 37 18 81 31 103 31
l37 0 0 -57z m-689 11 c89 -31 127 -34 201 -11 37 11 71 17 74 14 9 -9 -23
-155 -60 -279 -26 -86 -32 -118 -26 -146 5 -20 14 -86 20 -146 11 -100 10
-124 -11 -279 l-24 -170 -41 -19 c-47 -20 -94 -16 -117 11 -30 34 -68 432 -84
879 -7 182 -10 174 68 146z m329 -244 c26 -186 74 -445 101 -553 l20 -78 -26
-30 c-14 -17 -25 -38 -25 -46 0 -19 -74 -118 -104 -139 -29 -20 -36 -18 -36
12 0 15 -10 47 -22 71 l-22 45 23 111 c36 170 38 267 11 379 l-22 93 30 101
c17 55 33 122 37 148 4 26 9 46 10 44 2 -2 13 -73 25 -158z"/>
<path d="M15640 7820 c0 -5 22 -10 48 -10 28 0 64 -8 87 -20 44 -22 59 -25 49
-9 -21 34 -184 69 -184 39z"/>
<path d="M15670 7720 c0 -4 11 -15 25 -24 21 -14 32 -15 70 -5 24 6 50 17 56
25 14 17 6 17 -43 3 -25 -6 -50 -7 -73 0 -19 5 -35 6 -35 1z"/>
<path d="M15577 7650 c-3 -11 -1 -20 4 -20 5 0 9 9 9 20 0 11 -2 20 -4 20 -2
0 -6 -9 -9 -20z"/>
<path d="M15585 7531 l-90 -6 56 -14 c46 -11 66 -11 108 -1 28 6 48 16 45 21
-3 5 -11 8 -17 7 -7 -1 -52 -4 -102 -7z"/>
<path d="M16008 7509 c-10 -5 -18 -15 -18 -21 0 -7 4 -7 13 -1 6 6 26 15 42
21 28 10 29 10 5 11 -14 0 -33 -4 -42 -10z"/>
<path d="M16026 7475 c-9 -26 -7 -32 5 -12 6 10 9 21 6 23 -2 3 -7 -2 -11 -11z"/>
<path d="M15565 7450 c28 -12 57 -12 50 0 -3 6 -21 10 -38 9 -27 0 -29 -2 -12
-9z"/>
<path d="M15825 6866 c-25 -60 -47 -167 -48 -236 -1 -52 4 -78 28 -129 35 -76
44 -65 19 25 -19 73 -15 202 10 309 17 70 13 84 -9 31z"/>
<path d="M16248 4045 c-16 -13 -28 -27 -28 -30 0 -13 29 -3 48 18 39 42 24 51
-20 12z"/>
<path d="M15810 4025 c-7 -8 -19 -15 -26 -15 -8 0 -14 -4 -14 -10 0 -5 7 -10
16 -10 20 0 66 35 57 44 -10 10 -20 7 -33 -9z"/>
</g>
</svg>
